<svg width="12" height="20" viewBox="0 0 12 20" fill="none" xmlns="http://www.w3.org/2000/svg">
<path fill-rule="evenodd" clip-rule="evenodd" d="M11.7626 18.3203C11.7626 17.6033 11.4564 17.4868 10.9521 16.9824C10.2698 16.3002 4.21101 10.1876 3.98916 10.0391L5.19034 8.81837C6.1638 7.84492 11.2537 2.81769 11.5737 2.38918C11.8872 1.96925 11.8307 1.41624 11.535 1.04794C11.43 0.917078 10.7668 0.247881 10.6001 0.146889C10.4657 0.0654658 10.3345 0.0190219 10.2069 -1.37886e-07L9.93146 -1.6197e-07C9.32634 0.0883596 8.82587 0.729696 8.51062 1.04491L0.404386 9.14961C-0.570382 10.1331 0.45156 10.896 1.01064 11.4551L9.11611 19.5605C9.48324 19.9289 9.62304 20 10.122 20C10.5519 20 10.8964 19.5967 11.1279 19.3652C11.3953 19.0978 11.7626 18.826 11.7626 18.3203L11.7626 18.3203Z" fill="white"/>
</svg>
