<svg width="30" height="30" viewBox="0 0 30 30" fill="none" xmlns="http://www.w3.org/2000/svg">
<path d="M9.00832 30C8.18256 30 7.47566 29.7063 6.88761 29.1188C6.29957 28.5313 6.00555 27.825 6.00555 27C6.00555 26.175 6.29957 25.4688 6.88761 24.8813C7.47566 24.2938 8.18256 24 9.00832 24C9.83409 24 10.541 24.2938 11.129 24.8813C11.7171 25.4688 12.0111 26.175 12.0111 27C12.0111 27.825 11.7171 28.5313 11.129 29.1188C10.541 29.7063 9.83409 30 9.00832 30ZM24.0222 30C23.1964 30 22.4895 29.7063 21.9015 29.1188C21.3134 28.5313 21.0194 27.825 21.0194 27C21.0194 26.175 21.3134 25.4688 21.9015 24.8813C22.4895 24.2938 23.1964 24 24.0222 24C24.848 24 25.5549 24.2938 26.1429 24.8813C26.7309 25.4688 27.025 26.175 27.025 27C27.025 27.825 26.7309 28.5313 26.1429 29.1188C25.5549 29.7063 24.848 30 24.0222 30ZM6.30583 3H28.4513C29.0268 3 29.4647 3.25625 29.765 3.76875C30.0653 4.28125 30.0778 4.8 29.8025 5.325L24.4726 14.925C24.1974 15.425 23.8283 15.8125 23.3653 16.0875C22.9024 16.3625 22.3957 16.5 21.8452 16.5H10.6598L9.00832 19.5H25.5236C25.949 19.5 26.3056 19.6438 26.5933 19.9313C26.8811 20.2188 27.025 20.575 27.025 21C27.025 21.425 26.8811 21.7812 26.5933 22.0688C26.3056 22.3563 25.949 22.5 25.5236 22.5H9.00832C7.88228 22.5 7.0315 22.0063 6.45597 21.0188C5.88043 20.0312 5.85541 19.05 6.3809 18.075L8.40777 14.4L3.00277 3H1.50139C1.07599 3 0.719415 2.85625 0.431649 2.56875C0.143883 2.28125 0 1.925 0 1.5C0 1.075 0.143883 0.71875 0.431649 0.43125C0.719415 0.14375 1.07599 0 1.50139 0H3.94114C4.2164 0 4.47914 0.075 4.72937 0.225C4.9796 0.375 5.16727 0.5875 5.29239 0.8625L6.30583 3Z" fill="white"/>
</svg>
